<svg width="210" height="94" viewBox="0 0 210 94" fill="none" xmlns="http://www.w3.org/2000/svg">
<path d="M97.918 16H79.918L47.918 78H63.918L72.118 62H105.718L113.918 78H129.918L97.918 16ZM78.318 50L88.918 29.6L99.518 50H78.318ZM195.918 32H209.918V78H195.918V32ZM209.918 16V30H139.918C138.178 30 136.492 30.362 135.318 31.2C133.918 32.2 133.318 33.4 133.318 35C133.318 36.6 133.918 37.8 135.318 38.8C136.492 39.638 138.178 40 139.918 40H165.118C175.118 40 182.518 44 186.118 51C187.318 53.4 187.918 56 187.918 59C187.918 62 187.318 64.6 186.118 67C182.518 74 175.118 78 165.118 78H132.318L125.118 64H167.118C168.858 64 170.544 63.638 171.718 62.8C173.118 61.8 173.718 60.6 173.718 59C173.718 57.4 173.118 56.2 171.718 55.2C170.544 54.362 168.858 54 167.118 54H141.918C131.918 54 124.518 50 120.918 43C119.718 40.6 119.118 38 119.118 35C119.118 32 119.718 29.4 120.918 27C124.518 20 131.918 16 141.918 16H209.918Z" fill="#002B45"/>
<path d="M15.494 72.184L10.04 75.084L4.484 66.524L9.348 62.724C8.166 60.122 7.282 57.398 6.708 54.598L0.538 54.382L0 44.192L6.116 43.332C6.386 40.53 6.988 37.734 7.908 34.986L2.664 31.708L7.298 22.614L13.032 24.93C14.716 22.57 16.622 20.442 18.732 18.574L15.832 13.12L24.392 7.564L28.192 12.428C30.794 11.246 33.518 10.362 36.318 9.788L36.534 3.618L46.724 3.08L47.584 9.196C49.256 9.358 50.922 9.65 52.58 10.044L48.874 15.39C35.564 13.302 21.854 19.81 15.406 32.466C8.958 45.122 11.75 60.04 21.264 69.58L19.126 75.698C17.836 74.596 16.606 73.438 15.494 72.184ZM52.294 51.268C51.032 53.744 48.814 55.388 46.324 56.052L19.918 94L35.182 50.374C34.254 47.97 34.282 45.21 35.542 42.734C36.804 40.258 39.022 38.614 41.512 37.95L67.918 0L52.654 43.626C53.582 46.03 53.556 48.79 52.294 51.268ZM46.76 37.898L49.612 39.35L53.918 27.4L46.76 37.898ZM48.73 49.452C50.084 46.794 49.028 43.542 46.37 42.188C43.712 40.834 40.46 41.89 39.106 44.548C37.752 47.206 38.808 50.458 41.466 51.812C44.124 53.166 47.376 52.108 48.73 49.452Z" fill="#009FDA"/>
</svg>
